Coordinates
version=1
nRows=8
nColumns=40
inDegrees=yes

Units are S.I. units (second, meters, Newtons, ...)
Angles are in degrees.

endheader
time	pelvis_tilt	pelvis_list	pelvis_rotation	pelvis_tx	pelvis_ty	pelvis_tz	hip_flexion_r	hip_adduction_r	hip_rotation_r	knee_angle_r	knee_angle_r_beta	ankle_angle_r	subtalar_angle_r	mtp_angle_r	hip_flexion_l	hip_adduction_l	hip_rotation_l	knee_angle_l	knee_angle_l_beta	ankle_angle_l	subtalar_angle_l	mtp_angle_l	lumbar_extension	lumbar_bending	lumbar_rotation	arm_flex_r	arm_add_r	arm_rot_r	elbow_flex_r	pro_sup_r	wrist_flex_r	wrist_dev_r	arm_flex_l	arm_add_l	arm_rot_l	elbow_flex_l	pro_sup_l	wrist_flex_l	wrist_dev_l
      0.00000000	      1.59191024	     12.86401750	     84.76284390	      0.54596938	      1.00925613	     -0.96832451	    -18.45939810	     -4.51899678	      5.13291013	      0.37755035	      0.00658950	     10.66352508	      0.00000000	      0.00000000	    -19.78625611	     -2.26281577	    -12.12092815	      0.27854821	      0.00486158	     10.31843287	      0.00000000	      0.00000000	    -21.03002945	     -0.09832020	     -0.94979862	      2.87426181	    -64.39011556	    -27.63715011	    104.96456641	     88.91030254	      0.00000000	      0.00000000	    -41.43670261	    -52.17642437	    -71.44114739	    109.65236799	     88.83104111	      0.00000000	      0.00000000
      0.01000000	      1.59904183	     12.84598989	     84.73900687	      0.54591636	      1.00927577	     -0.96841561	    -18.42960993	     -4.51980116	      5.10243289	      0.38541542	      0.00672677	     10.61444796	      0.00000000	      0.00000000	    -19.77421664	     -2.25923880	    -12.19479280	      0.27823948	      0.00485620	     10.26609990	      0.00000000	      0.00000000	    -20.98064217	     -0.08696530	     -0.86201785	      2.59951628	    -64.41430316	    -27.86544987	    105.00654261	     88.92689318	      0.00000000	      0.00000000	    -41.19485861	    -52.25365960	    -71.16133275	    109.56381845	     88.84722354	      0.00000000	      0.00000000
      0.02000000	      1.65451002	     12.09997793	     84.24213862	      0.54637173	      1.00870522	     -0.96772202	    -17.06982353	     -4.52582827	      5.75377686	      1.13162148	      0.01975052	     10.66054488	      0.00000000	      0.00000000	    -18.75509335	     -2.29679068	    -12.71711171	      0.77133247	      0.01346229	     10.26053174	      0.00000000	      0.00000000	    -20.21646263	     -0.05738299	     -0.30144664	      2.41348026	    -64.28817528	    -27.98387091	    105.11619282	     86.99584895	      0.00000000	      0.00000000	    -40.40491415	    -52.04518419	    -70.30110563	    109.46770941	     86.77837255	      0.00000000	      0.00000000
      0.03000000	      1.57792945	     12.81342515	     84.75720119	      0.54584065	      1.00917783	     -0.96859966	    -18.39528359	     -4.54109244	      5.04032134	      0.39574040	      0.00690697	     10.58598221	      0.00000000	      0.00000000	    -19.74364908	     -2.23950937	    -12.11040000	      0.28039934	      0.00489389	     10.27193812	      0.00000000	      0.00000000	    -20.98593765	     -0.10704600	     -0.51560350	      0.69665216	    -64.45928771	    -29.76704431	    105.53181551	     88.92429330	      0.00000000	      0.00000000	    -40.46837981	    -52.65010276	    -70.36797194	    109.42342839	     88.84478018	      0.00000000	      0.00000000
      0.04000000	      1.58771330	     12.93592844	     84.75387352	      0.54583701	      1.00926666	     -0.96849678	    -18.52638726	     -4.54047402	      5.00263212	      0.39611028	      0.00691343	     10.63552592	      0.00000000	      0.00000000	    -19.87573514	     -2.23639365	    -12.13792483	      0.28060627	      0.00489750	     10.32888629	      0.00000000	      0.00000000	    -21.04416516	     -0.14020212	     -1.15680132	      3.61642140	    -64.40898922	    -26.74498209	    104.81150896	     88.92845047	      0.00000000	      0.00000000	    -41.80768115	    -52.08971061	    -71.65901090	    109.68728049	     88.85086410	      0.00000000	      0.00000000
      0.05000000	      1.61603905	     12.91968570	     84.70989510	      0.54583527	      1.00925577	     -0.96852633	    -18.50366089	     -4.52491776	      5.06726444	      0.39520037	      0.00689755	     10.61465528	      0.00000000	      0.00000000	    -19.86809530	     -2.25145840	    -12.18963825	      0.28029955	      0.00489215	     10.30536042	      0.00000000	      0.00000000	    -21.04510812	     -0.12010084	     -1.00311064	      3.03900157	    -64.45676781	    -27.32146778	    104.97120571	     88.93105512	      0.00000000	      0.00000000	    -41.53814961	    -52.19250584	    -71.38547822	    109.65150664	     88.85362276	      0.00000000	      0.00000000
      0.06000000	      1.67860934	     12.13583311	     84.27259187	      0.54614152	      1.00868207	     -0.96780293	    -17.12468852	     -4.50243996	      5.61805750	      1.12853219	      0.01969660	     10.68871643	      0.00000000	      0.00000000	    -18.78446531	     -2.31621262	    -12.64871319	      0.79605210	      0.01389373	     10.41928361	      0.00000000	      0.00000000	    -20.19429954	     -0.03920998	     -0.46551677	      2.85417711	    -64.41624038	    -27.32473366	    104.99508388	     86.87683853	      0.00000000	      0.00000000	    -40.54928888	    -52.03524636	    -70.31767262	    109.47298308	     86.66368093	      0.00000000	      0.00000000
      0.07000000	      1.62237450	     12.95067319	     84.69044087	      0.54574906	      1.00928048	     -0.96848460	    -18.53393195	     -4.53242972	      5.08343846	      0.39433531	      0.00688245	     10.63497141	      0.00000000	      0.00000000	    -19.90526808	     -2.24636554	    -12.16094762	      0.27999095	      0.00488676	     10.31998974	      0.00000000	      0.00000000	    -21.06572367	     -0.13777724	     -1.17072390	      3.72568139	    -64.47933704	    -26.58668300	    104.80363375	     88.92834540	      0.00000000	      0.00000000	    -41.88031950	    -52.04149450	    -71.70105316	    109.73962713	     88.85325585	      0.00000000	      0.00000000
